HIERARCHY
ROOT Hips
{
	OFFSET 0.000000 0.000000 0.000000
	CHANNELS 6 Xposition Yposition Zposition Zrotation Yrotation Xrotation 
	JOINT LHipJoint
	{
		OFFSET 0.000000 0.000000 0.000000
		CHANNELS 3 Zrotation Yrotation Xrotation
		JOINT LeftUpLeg
		{
			OFFSET 1.363060 -1.794630 0.839290
			CHANNELS 3 Zrotation Yrotation Xrotation
			JOINT LeftLeg
			{
				OFFSET 2.448110 -6.726130 0.000000
				CHANNELS 3 Zrotation Yrotation Xrotation
				JOINT LeftFoot
				{
					OFFSET 2.562200 -7.039590 0.000000
					CHANNELS 3 Zrotation Yrotation Xrotation
					JOINT LeftToeBase
					{
						OFFSET 0.157640 -0.433110 2.322550
						CHANNELS 3 Zrotation Yrotation Xrotation
						End Site
						{
							OFFSET 0.000000 0.000000 0.000000
						}
					}
				}
			}
		}
	}
	JOINT RHipJoint
	{
		OFFSET 0.000000 0.000000 0.000000
		CHANNELS 3 Zrotation Yrotation Xrotation
		JOINT RightUpLeg
		{
			OFFSET -1.305520 -1.794630 0.839290
			CHANNELS 3 Zrotation Yrotation Xrotation
			JOINT RightLeg
			{
				OFFSET -2.542530 -6.985550 0.000000
				CHANNELS 3 Zrotation Yrotation Xrotation
				JOINT RightFoot
				{
					OFFSET -2.568260 -7.056230 0.000000
					CHANNELS 3 Zrotation Yrotation Xrotation
					JOINT RightToeBase
					{
						OFFSET -0.164730 -0.452590 2.363150
						CHANNELS 3 Zrotation Yrotation Xrotation
						End Site
						{
							OFFSET 0.000000 0.000000 0.000000
						}
					}
				}
			}
		}
	}
}
MOTION
Frames: 30
Frame Time: 0.008333
4.236116 16.822890 -5.420057 -177.985276 27.574444 -178.443548 -11.817513 4.706270 0.379461 -7.678393 3.776900 15.329786 -0.963518 2.352712 24.235340 0.160707 -2.493759 8.220224 -0.620399 0.000000 -65.678200 8.110361 -1.043652 1.069037 8.728892 -1.340560 -24.985330 2.258047 -1.337818 22.334051 -0.184542 -0.383889 0.997728 -0.414000 0.000000 -44.584200
4.334470 16.829294 -5.549415 -178.077949 26.787506 -178.733189 -11.930461 4.784392 0.358647 -6.983810 4.112064 14.938220 -0.822553 2.472387 25.716844 0.178136 -3.231946 10.055855 -0.936700 0.000000 -66.738400 8.147407 -1.089053 0.949840 8.537893 -1.729041 -24.598786 2.164298 -1.434318 23.476479 -0.232694 -0.563779 0.608110 -0.417000 -0.000000 -42.938200
4.432016 16.836185 -5.677907 -178.133121 25.998652 -179.006751 -12.054885 4.859138 0.331919 -6.197373 4.538194 14.432820 -0.672987 2.581139 27.301148 0.215236 -4.015682 11.960192 -1.322200 0.000000 -67.058700 8.175697 -1.138876 0.817843 8.427151 -2.225212 -24.116358 2.094340 -1.504740 24.408806 -0.291818 -0.811958 0.098099 -0.426700 0.000000 -41.189400
4.528820 16.843417 -5.805230 -178.156647 25.208420 -179.258773 -12.187347 4.927355 0.300277 -5.337915 5.045311 13.798674 -0.517414 2.677012 28.998200 0.276061 -4.790580 13.908443 -1.763200 0.000000 -66.608700 8.195728 -1.192315 0.679705 8.386064 -2.798584 -23.548024 2.046738 -1.550667 25.133108 -0.360811 -1.118898 -0.523276 -0.438700 0.000000 -39.366400
4.624965 16.850863 -5.931072 -178.159043 24.417355 -179.486513 -12.322133 4.985217 0.265208 -4.438794 5.612271 13.032921 -0.360267 2.758701 30.805656 0.362087 -5.480969 15.852165 -2.227300 0.000000 -65.419100 8.209444 -1.247740 0.541347 8.397578 -3.420882 -22.910470 2.018334 -1.574756 25.665680 -0.437685 -1.467876 -1.238312 -0.447300 -0.000000 -37.522301
4.720202 16.858556 -6.055382 -178.140331 23.625712 -179.681275 -12.458654 5.028979 0.225811 -3.515463 6.232099 12.119169 -0.203283 2.826589 32.735572 0.474577 -5.991481 17.755002 -2.665600 -0.000000 -63.415000 8.215384 -1.304649 0.411434 8.455077 -4.045682 -22.217339 2.005364 -1.578863 26.020635 -0.522959 -1.859538 -2.021401 -0.450700 0.000000 -35.671300
4.814471 16.866399 -6.177907 -178.116697 22.835473 -179.846405 -12.588644 5.055217 0.183488 -2.620105 6.871356 11.077386 -0.052347 2.882093 34.760331 0.608786 -6.223362 19.533284 -3.008799 0.000000 -60.809800 8.217581 -1.360528 0.293009 8.534921 -4.654762 -21.491466 2.002554 -1.567196 26.233094 -0.613712 -2.272511 -2.842299 -0.444400 0.000000 -33.921200
4.907436 16.874487 -6.298616 -178.092700 22.048090 -179.979660 -12.709864 5.061452 0.137543 -1.780614 7.513934 9.912865 0.090791 2.928248 36.866530 0.760843 -6.080165 21.123690 -3.182200 0.000000 -57.718100 8.216471 -1.414329 0.191219 8.625539 -5.215354 -20.748535 2.004938 -1.542802 26.329477 -0.709903 -2.706939 -3.669213 -0.428900 -0.000000 -32.332000
4.998714 16.882957 -6.417487 -178.075822 21.265893 179.916921 -12.819222 5.046247 0.087587 -1.028641 8.140455 8.642404 0.224927 2.968777 39.028320 0.926039 -5.485855 22.457725 -3.117000 -0.000000 -54.364600 8.213728 -1.464740 0.108617 8.713226 -5.705771 -20.002999 2.007649 -1.509176 26.338744 -0.811113 -3.162106 -4.473026 -0.404900 0.000000 -30.975000
5.087962 16.891994 -6.534448 -178.071503 20.491519 179.839777 -12.914839 5.009284 0.033137 -0.388697 8.735088 7.285169 0.350013 3.007507 41.216026 1.100224 -4.399467 23.469080 -2.766299 0.000000 -50.963800 8.210838 -1.510684 0.045771 8.786827 -6.112288 -19.264507 2.006692 -1.469493 26.285882 -0.917177 -3.640178 -5.230445 -0.374600 0.000000 -29.898500
5.174841 16.901800 -6.649532 -178.084437 19.727622 179.783322 -12.995335 4.951535 -0.026280 0.121749 9.285565 5.863986 0.466627 3.047897 43.397587 1.279991 -2.825480 24.097357 -2.119500 -0.000000 -47.705100 8.209514 -1.551353 0.001149 8.836616 -6.431536 -18.537043 1.999249 -1.426442 26.189848 -1.027792 -4.142794 -5.925747 -0.340000 -0.000000 -29.123800
5.259058 16.912629 -6.762703 -178.117042 18.976724 179.741068 -13.060333 4.875117 -0.091103 0.495008 9.785084 4.400703 0.575432 3.092659 45.540803 1.462326 -0.818487 24.290552 -1.210000 -0.000000 -44.700900 8.210981 -1.586338 -0.028449 8.856619 -6.669323 -17.818754 1.983929 -1.381811 26.060410 -1.142649 -4.671366 -6.550253 -0.303100 0.000000 -28.643500
5.340600 16.924629 -6.873917 -178.175081 18.240172 179.702329 -13.107991 4.783437 -0.161957 0.725016 10.230758 2.920739 0.676637 3.143572 47.611930 1.644097 1.522510 24.014111 -0.113700 -0.000000 -41.984900 8.218544 -1.614887 -0.048849 8.836391 -6.846899 -17.104402 1.960387 -1.337232 25.905333 -1.259845 -5.216952 -7.103964 -0.264900 0.000000 -28.424900
5.419224 16.938018 -6.983346 -178.249714 17.519072 179.666461 -13.141513 4.679891 -0.238309 0.830628 10.626337 1.435441 0.770118 3.201197 49.584465 1.821647 4.060736 23.248141 1.059600 0.000000 -39.508400 8.229478 -1.638734 -0.063335 8.787299 -6.975447 -16.381064 1.930428 -1.291735 25.707362 -1.379949 -5.785419 -7.584901 -0.227800 0.000000 -28.417599
5.495042 16.952855 -7.091001 -178.340869 16.814188 179.626727 -13.160785 4.568578 -0.319859 0.822290 10.976760 -0.037993 0.854552 3.264935 51.429402 1.990701 6.643712 22.007648 2.186600 -0.000000 -37.209500 8.244782 -1.658382 -0.077363 8.709852 -7.079160 -15.636484 1.895836 -1.244893 25.454557 -1.501303 -6.368232 -7.997502 -0.192700 0.000001 -28.568800
5.568459 16.969108 -7.196823 -178.454938 16.125577 179.573649 -13.163166 4.454187 -0.405731 0.702204 11.287950 -1.481911 0.927630 3.332766 53.118205 2.146635 9.127225 20.336046 3.154600 -0.000000 -34.985900 8.268786 -1.673350 -0.097564 8.594225 -7.194304 -14.863517 1.858469 -1.196746 25.141911 -1.619706 -6.941919 -8.351242 -0.158999 0.000000 -28.816800
5.639666 16.986696 -7.301017 -178.586034 15.454023 179.508296 -13.150328 4.339982 -0.494017 0.489890 11.568579 -2.891570 0.986435 3.401759 54.631743 2.284598 11.382248 18.300520 3.875400 -0.000000 -32.763000 8.300119 -1.685160 -0.126191 8.449922 -7.335563 -14.052039 1.820842 -1.145593 24.748530 -1.733830 -7.500332 -8.648741 -0.128100 0.000000 -29.112300
5.709015 17.005429 -7.403711 -178.736073 14.800271 179.429787 -13.121400 4.229147 -0.582380 0.192584 11.826322 -4.262467 1.027478 3.468289 55.953923 2.399974 13.315234 15.987984 4.301400 0.000000 -30.473100 8.340775 -1.694161 -0.165866 8.275047 -7.524997 -13.202213 1.784777 -1.090891 24.268543 -1.839906 -8.023395 -8.895526 -0.100200 0.000000 -29.409900
5.776673 17.025111 -7.505144 -178.897367 14.167190 179.342875 -13.078683 4.122407 -0.669317 -0.170295 12.071712 -5.594770 1.047810 3.528638 57.075149 2.489850 14.872145 13.510433 4.431200 -0.000001 -28.207300 8.388202 -1.702022 -0.214928 8.081660 -7.757039 -12.307889 1.751686 -1.031147 23.685388 -1.937657 -8.511202 -9.090037 -0.077400 0.000000 -29.689400
5.842941 17.045430 -7.605505 -179.069949 13.560387 179.249075 -13.022446 4.021044 -0.754275 -0.590672 12.317373 -6.887811 1.044829 3.580067 57.990843 2.551205 16.031604 10.961242 4.296299 0.000000 -25.889601 8.442956 -1.709114 -0.272904 7.870363 -8.035814 -11.374595 1.722284 -0.966459 23.002687 -2.023947 -8.948038 -9.233717 -0.060600 0.000001 -29.933500
5.908031 17.066084 -7.705072 -179.256751 12.981424 179.153016 -12.952411 3.925605 -0.834863 -1.068984 12.570042 -8.147188 1.017582 3.619679 58.701350 2.584236 16.813266 8.439779 3.959299 -0.000000 -23.593600 8.506763 -1.715705 -0.337780 7.636366 -8.365545 -10.420116 1.696616 -0.897807 22.237869 -2.095146 -9.315610 -9.328646 -0.050100 0.000001 -30.140600
5.971959 17.086762 -7.804134 -179.454601 12.436298 179.060080 -12.870701 3.835562 -0.910557 -1.597345 12.840134 -9.378164 0.966665 3.646009 59.210952 2.591067 17.258888 6.031271 3.492800 -0.000000 -21.394700 8.578167 -1.722698 -0.406193 7.383668 -8.736160 -9.457433 1.674597 -0.826028 21.405843 -2.149549 -9.606730 -9.373013 -0.047200 0.000000 -30.325200
6.034575 17.107111 -7.902806 -179.657647 11.934032 178.970501 -12.779939 3.748826 -0.985727 -2.162395 13.144747 -10.576850 0.893879 3.659120 59.526154 2.575585 17.427178 3.786120 2.962800 0.000000 -19.271400 8.654355 -1.731150 -0.474143 7.119421 -9.117820 -8.484057 1.655275 -0.752108 20.514107 -2.188717 -9.831332 -9.363689 -0.053701 0.000000 -30.521100
6.095789 17.126970 -8.001494 -179.867772 11.476852 178.891752 -12.681740 3.665472 -1.056612 -2.768687 13.483382 -11.756173 0.802505 3.658393 59.655580 2.544857 17.395215 1.759213 2.430900 -0.000000 -17.379100 8.735344 -1.741288 -0.539623 6.839734 -9.518832 -7.533654 1.638761 -0.678352 19.602379 -2.208900 -9.969710 -9.304982 -0.068300 -0.000000 -30.744700
6.155279 17.145993 -8.100176 179.921760 11.073899 178.818988 -12.578699 3.582973 -1.130178 -3.401362 13.872974 -12.905374 0.695301 3.645439 59.608114 2.505408 17.233499 -0.058586 1.927699 -0.000000 -15.579999 8.817684 -1.753987 -0.599547 6.551932 -9.903404 -6.593337 1.623701 -0.605976 18.675457 -2.214034 -10.042930 -9.196123 -0.092000 -0.000000 -31.037700
6.212834 17.164102 -8.199187 179.712596 10.725591 178.757258 -12.473069 3.500846 -1.203903 -4.059710 14.310228 -14.033347 0.576039 3.620651 59.392900 2.465863 17.019182 -1.654932 1.478900 -0.000000 -14.008000 8.899549 -1.769586 -0.652917 6.257211 -10.275773 -5.685623 1.610386 -0.536715 17.763815 -2.203225 -10.044814 -9.043527 -0.122900 -0.000000 -31.412200
6.268206 17.181130 -8.298511 179.509103 10.434808 178.703604 -12.366628 3.417683 -1.280622 -4.734440 14.799459 -15.135578 0.447204 3.585354 59.018096 2.433148 16.813340 -3.057996 1.086900 -0.000000 -12.611300 8.978296 -1.788376 -0.698878 5.960474 -10.620883 -4.806212 1.598248 -0.471434 16.875957 -2.179517 -9.989711 -8.851906 -0.159899 0.000000 -31.884000
6.321253 17.197008 -8.398230 179.314577 10.200273 178.656201 -12.260535 3.332677 -1.361172 -5.417929 15.339043 -16.209517 0.310723 3.540507 58.490466 2.412970 16.663391 -4.297942 0.746500 0.000000 -11.377400 9.051931 -1.810350 -0.737691 5.665512 -10.933673 -3.952822 1.587077 -0.410492 16.018054 -2.145588 -9.889345 -8.628135 -0.201599 0.000000 -32.454100
6.371962 17.211688 -8.498326 179.131977 10.017973 178.612990 -12.155261 3.245501 -1.445648 -6.103609 15.924481 -17.252519 0.167795 3.486906 57.815825 2.408880 16.597724 -5.406789 0.446900 -0.000000 -10.292100 9.119089 -1.835340 -0.770213 5.375806 -11.212639 -3.120083 1.576670 -0.353740 15.190508 -2.104253 -9.756326 -8.378671 -0.246300 -0.000001 -33.112900
6.420408 17.225139 -8.598796 178.962502 9.880808 178.572003 -12.050500 3.156270 -1.533194 -6.786108 16.548137 -18.262234 0.019023 3.425022 56.998446 2.421989 16.625024 -6.412472 0.176900 0.000001 -9.342100 9.179370 -1.862911 -0.797745 5.093628 -11.460352 -2.301282 1.566763 -0.300520 14.388354 -2.058268 -9.603174 -8.109686 -0.293000 0.000000 -33.842200
